<svg xmlns="http://www.w3.org/2000/svg" width="1280" height="1280" fill="none" xmlns:v="https://vecta.io/nano"><path fill-rule="evenodd" d="M215.04 286.721h112.64v112.64H215.04v-112.64zm20.48 20.479h71.68v71.68h-71.68V307.2zM20.481 644.755v.367.366-.733zM378.88 1003.52h327.68c197.939 0 358.4-160.46 358.4-358.398s-160.461-358.4-358.399-358.4h-276.48v117.977L373.979 460.8H286.72v133.12h133.12v-92.091l51.267-51.267H706.56c107.453 0 194.56 87.107 194.56 194.56s-87.108 194.56-194.56 194.56H555.445l-53.685-53.685v-43.419l56.498-56.498h117.583V522.24H512v123.209l-50.871 50.871H368.64v133.12h89.674L512 883.126v120.394h-81.919 0-51.76.246.313zm163.84-450.559h102.4v102.4h-102.4v-102.4z" fill="#2c74c8"/></svg>