<svg xmlns="http://www.w3.org/2000/svg" width="1280" height="1280" fill="none"><circle cx="640" cy="640" r="640" fill="#000"/><path fill="#fff" fill-rule="evenodd" d="M215.039 286.721h112.64v112.64h-112.64v-112.64zM235.52 307.2h71.68v71.68h-71.68V307.2zM20.48 644.699v.845-.845zm358.4 358.821h327.68c197.939 0 358.4-160.46 358.4-358.398s-160.461-358.4-358.4-358.4H430.08v117.977L373.979 460.8H286.72v133.12h133.12v-92.091l51.267-51.267H706.56c107.452 0 194.559 87.107 194.559 194.56s-87.107 194.56-194.56 194.56H555.445l-53.685-53.685v-43.419l56.498-56.498H675.84V522.24H512v123.209l-50.871 50.871H368.64v133.12h89.674L512 883.126v120.394H378.32h.56zm163.84-450.559h102.4v102.4h-102.4v-102.4z"/></svg>